<svg width="46" height="44" viewBox="0 0 46 44" fill="none" xmlns="http://www.w3.org/2000/svg">
<path d="M45.8867 22C45.8867 34.1503 35.8131 44 23.3867 44C10.9603 44 0.886719 34.1503 0.886719 22C0.886719 9.84974 10.9603 0 23.3867 0C35.8131 0 45.8867 9.84974 45.8867 22Z" fill="url(#paint0_radial_26_81)"/>
<path d="M13.6024 28.512C11.931 28.512 10.6389 28.116 9.726 27.324C8.81315 26.5194 8.35672 25.3189 8.35672 23.7223V20.5354C8.35672 18.9137 8.81315 17.7069 9.726 16.9149C10.6517 16.1103 11.9503 15.708 13.6217 15.708C14.7917 15.708 15.7881 15.8903 16.611 16.2549C17.4339 16.6194 18.0381 17.1411 18.4239 17.82C18.8224 18.4863 18.9574 19.272 18.8289 20.1771C18.816 20.24 18.7903 20.3029 18.7517 20.3657C18.7131 20.416 18.6553 20.4411 18.5781 20.4411H16.3024C16.1481 20.4411 16.0774 20.3594 16.0903 20.196C16.1031 19.5297 15.9103 19.0017 15.5117 18.612C15.126 18.2223 14.5089 18.0274 13.6603 18.0274C12.8503 18.0274 12.2203 18.2411 11.7703 18.6686C11.3331 19.0834 11.1146 19.7309 11.1146 20.6109V23.6091C11.1146 24.4891 11.3331 25.1429 11.7703 25.5703C12.2203 25.9851 12.8503 26.1926 13.6603 26.1926C14.5346 26.1926 15.1646 25.9914 15.5503 25.5891C15.9489 25.1743 16.1289 24.6526 16.0903 24.024C16.0774 23.8606 16.1481 23.7789 16.3024 23.7789H18.5589C18.7131 23.7789 18.8031 23.8669 18.8289 24.0429C18.9189 24.948 18.7646 25.74 18.366 26.4189C17.9674 27.0851 17.3631 27.6006 16.5531 27.9651C15.7431 28.3297 14.7596 28.512 13.6024 28.512Z" fill="black"/>
<path d="M22.8671 26.3811C22.7 26.3811 22.6164 26.2994 22.6164 26.136V23.6657H19.8393C19.6721 23.6657 19.5885 23.5903 19.5885 23.4394V21.8177C19.5885 21.6543 19.6721 21.5726 19.8393 21.5726H22.6164V19.1023C22.6164 18.9514 22.7 18.876 22.8671 18.876H24.5643C24.7314 18.876 24.815 18.9514 24.815 19.1023V21.5726H27.5921C27.7593 21.5726 27.8428 21.6543 27.8428 21.8177V23.4394C27.8428 23.5903 27.7593 23.6657 27.5921 23.6657H24.815V26.136C24.815 26.2994 24.7314 26.3811 24.5643 26.3811H22.8671Z" fill="black"/>
<path d="M32.5024 26.3811C32.3353 26.3811 32.2517 26.2994 32.2517 26.136V23.6657H29.4746C29.3074 23.6657 29.2239 23.5903 29.2239 23.4394V21.8177C29.2239 21.6543 29.3074 21.5726 29.4746 21.5726H32.2517V19.1023C32.2517 18.9514 32.3353 18.876 32.5024 18.876H34.1996C34.3667 18.876 34.4503 18.9514 34.4503 19.1023V21.5726H37.2274C37.3946 21.5726 37.4781 21.6543 37.4781 21.8177V23.4394C37.4781 23.5903 37.3946 23.6657 37.2274 23.6657H34.4503V26.136C34.4503 26.2994 34.3667 26.3811 34.1996 26.3811H32.5024Z" fill="black"/>
<defs>
<radialGradient id="paint0_radial_26_81" cx="0" cy="0" r="1" gradientUnits="userSpaceOnUse" gradientTransform="translate(6.38672 4.5) rotate(48.0128) scale(47.0877 48.1579)">
<stop stop-color="#93BEFF"/>
<stop offset="0.76329" stop-color="#1C60C7"/>
<stop offset="1" stop-color="#0066FF"/>
</radialGradient>
</defs>
</svg>
