<svg width="47" height="45" viewBox="0 0 47 45" fill="none" xmlns="http://www.w3.org/2000/svg">
<path d="M46.0227 22.5C46.0227 34.9264 35.7202 45 23.0114 45C10.3025 45 0 34.9264 0 22.5C0 10.0736 10.3025 0 23.0114 0C35.7202 0 46.0227 10.0736 46.0227 22.5Z" fill="url(#paint0_radial_26_82)"/>
<path d="M15.72 30.8057C13.7257 30.8057 12.184 30.3332 11.0948 29.3882C10.0056 28.4282 9.46096 26.9957 9.46096 25.0907V21.2882C9.46096 19.3532 10.0056 17.9132 11.0948 16.9682C12.1993 16.0082 13.7487 15.5282 15.7431 15.5282C17.1391 15.5282 18.328 15.7457 19.3098 16.1807C20.2916 16.6157 21.0127 17.2382 21.4729 18.0482C21.9485 18.8432 22.1095 19.7807 21.9561 20.8607C21.9408 20.9357 21.9101 21.0107 21.8641 21.0857C21.8181 21.1457 21.749 21.1757 21.657 21.1757H18.9416C18.7575 21.1757 18.6732 21.0782 18.6885 20.8832C18.7039 20.0882 18.4737 19.4582 17.9982 18.9932C17.5379 18.5282 16.8016 18.2957 15.7891 18.2957C14.8226 18.2957 14.0709 18.5507 13.534 19.0607C13.0124 19.5557 12.7516 20.3282 12.7516 21.3782V24.9557C12.7516 26.0057 13.0124 26.7857 13.534 27.2957C14.0709 27.7907 14.8226 28.0382 15.7891 28.0382C16.8323 28.0382 17.584 27.7982 18.0442 27.3182C18.5198 26.8232 18.7345 26.2007 18.6885 25.4507C18.6732 25.2557 18.7575 25.1582 18.9416 25.1582H21.634C21.8181 25.1582 21.9254 25.2632 21.9561 25.4732C22.0635 26.5532 21.8794 27.4982 21.4039 28.3082C20.9283 29.1032 20.2073 29.7182 19.2408 30.1532C18.2743 30.5882 17.1007 30.8057 15.72 30.8057Z" fill="black"/>
<path d="M26.0842 30.5357C25.8847 30.5357 25.785 30.4382 25.785 30.2432V28.0157H24.1052C23.9057 28.0157 23.806 27.9182 23.806 27.7232V25.9007C23.806 25.7057 23.9057 25.6082 24.1052 25.6082H25.785V21.6707H24.1052C23.9057 21.6707 23.806 21.5732 23.806 21.3782V19.5557C23.806 19.3607 23.9057 19.2632 24.1052 19.2632H25.785V17.0357C25.785 16.8407 25.8847 16.7432 26.0842 16.7432H28.1782C28.3776 16.7432 28.4773 16.8407 28.4773 17.0357V19.2632H32.2052V17.0357C32.2052 16.8407 32.3049 16.7432 32.5043 16.7432H34.5753C34.7748 16.7432 34.8745 16.8407 34.8745 17.0357V19.2632H36.5773C36.7614 19.2632 36.8535 19.3607 36.8535 19.5557V21.3782C36.8535 21.5732 36.7614 21.6707 36.5773 21.6707H34.8745V25.6082H36.5773C36.7614 25.6082 36.8535 25.7057 36.8535 25.9007V27.7232C36.8535 27.9182 36.7614 28.0157 36.5773 28.0157H34.8745V30.2432C34.8745 30.4382 34.7748 30.5357 34.5753 30.5357H32.5043C32.3049 30.5357 32.2052 30.4382 32.2052 30.2432V28.0157H28.4773V30.2432C28.4773 30.4382 28.3776 30.5357 28.1782 30.5357H26.0842ZM28.4773 25.6082H32.2052V21.6707H28.4773V25.6082Z" fill="black"/>
<defs>
<radialGradient id="paint0_radial_26_82" cx="0" cy="0" r="1" gradientUnits="userSpaceOnUse" gradientTransform="translate(7.67046 6.13636) rotate(52.9975) scale(44.1819 45.1861)">
<stop stop-color="#CF92FF"/>
<stop offset="0.757222" stop-color="#6E3BFF" stop-opacity="0.818267"/>
<stop offset="1" stop-color="#D220FF" stop-opacity="0.76"/>
</radialGradient>
</defs>
</svg>
