<svg width="28" height="28" viewBox="0 0 28 28" fill="none" xmlns="http://www.w3.org/2000/svg">
<circle cx="14" cy="14" r="14" fill="white"/>
<path d="M9.564 19.168C8.35067 19.168 7.41267 18.874 6.75 18.286C6.08733 17.6887 5.756 16.7973 5.756 15.612V13.246C5.756 12.042 6.08733 11.146 6.75 10.558C7.422 9.96067 8.36467 9.662 9.578 9.662C10.4273 9.662 11.1507 9.79733 11.748 10.068C12.3453 10.3387 12.784 10.726 13.064 11.23C13.3533 11.7247 13.4513 12.308 13.358 12.98C13.3487 13.0267 13.33 13.0733 13.302 13.12C13.274 13.1573 13.232 13.176 13.176 13.176H11.524C11.412 13.176 11.3607 13.1153 11.37 12.994C11.3793 12.4993 11.2393 12.1073 10.95 11.818C10.67 11.5287 10.222 11.384 9.606 11.384C9.018 11.384 8.56067 11.5427 8.234 11.86C7.91667 12.168 7.758 12.6487 7.758 13.302V15.528C7.758 16.1813 7.91667 16.6667 8.234 16.984C8.56067 17.292 9.018 17.446 9.606 17.446C10.2407 17.446 10.698 17.2967 10.978 16.998C11.2673 16.69 11.398 16.3027 11.37 15.836C11.3607 15.7147 11.412 15.654 11.524 15.654H13.162C13.274 15.654 13.3393 15.7193 13.358 15.85C13.4233 16.522 13.3113 17.11 13.022 17.614C12.7327 18.1087 12.294 18.4913 11.706 18.762C11.118 19.0327 10.404 19.168 9.564 19.168ZM15.8695 19C15.7481 19 15.6875 18.9393 15.6875 18.818V17.432H14.6655C14.5441 17.432 14.4835 17.3713 14.4835 17.25V16.116C14.4835 15.9947 14.5441 15.934 14.6655 15.934H15.6875V13.484H14.6655C14.5441 13.484 14.4835 13.4233 14.4835 13.302V12.168C14.4835 12.0467 14.5441 11.986 14.6655 11.986H15.6875V10.6C15.6875 10.4787 15.7481 10.418 15.8695 10.418H17.1435C17.2648 10.418 17.3255 10.4787 17.3255 10.6V11.986H19.5935V10.6C19.5935 10.4787 19.6541 10.418 19.7755 10.418H21.0355C21.1568 10.418 21.2175 10.4787 21.2175 10.6V11.986H22.2535C22.3655 11.986 22.4215 12.0467 22.4215 12.168V13.302C22.4215 13.4233 22.3655 13.484 22.2535 13.484H21.2175V15.934H22.2535C22.3655 15.934 22.4215 15.9947 22.4215 16.116V17.25C22.4215 17.3713 22.3655 17.432 22.2535 17.432H21.2175V18.818C21.2175 18.9393 21.1568 19 21.0355 19H19.7755C19.6541 19 19.5935 18.9393 19.5935 18.818V17.432H17.3255V18.818C17.3255 18.9393 17.2648 19 17.1435 19H15.8695ZM17.3255 15.934H19.5935V13.484H17.3255V15.934Z" fill="black"/>
</svg>
