<svg width="57" height="22" viewBox="0 0 57 22" fill="none" xmlns="http://www.w3.org/2000/svg">
<path d="M0.312 18C0.216 18 0.152 17.976 0.12 17.928C0.104 17.864 0.12 17.792 0.168 17.712L5.304 9.888L0.504 2.568C0.456 2.488 0.44 2.424 0.456 2.376C0.488 2.312 0.552 2.28 0.648 2.28H2.568C2.68 2.28 2.768 2.328 2.832 2.424L5.544 6.576C5.72 6.864 5.904 7.168 6.096 7.488C6.304 7.792 6.496 8.088 6.672 8.376H6.696C6.888 8.056 7.08 7.736 7.272 7.416C7.48 7.096 7.688 6.784 7.896 6.48L10.512 2.424C10.592 2.328 10.688 2.28 10.8 2.28H12.624C12.72 2.28 12.776 2.312 12.792 2.376C12.824 2.424 12.816 2.488 12.768 2.568L7.992 9.936L13.056 17.712C13.104 17.792 13.112 17.864 13.08 17.928C13.064 17.976 13.008 18 12.912 18H10.992C10.88 18 10.784 17.952 10.704 17.856L7.848 13.464C7.64 13.144 7.424 12.816 7.2 12.48C6.992 12.128 6.792 11.792 6.6 11.472H6.576C6.384 11.776 6.184 12.096 5.976 12.432C5.768 12.768 5.56 13.096 5.352 13.416L2.496 17.832C2.416 17.944 2.32 18 2.208 18H0.312ZM13.6457 18C13.4697 18 13.4057 17.912 13.4537 17.736L18.7577 2.472C18.8057 2.344 18.9017 2.28 19.0457 2.28H21.1817C21.3257 2.28 21.4217 2.344 21.4697 2.472L26.8457 17.736C26.8777 17.816 26.8697 17.88 26.8217 17.928C26.7897 17.976 26.7337 18 26.6537 18H24.9497C24.8057 18 24.7097 17.936 24.6617 17.808L21.0617 7.008C20.9017 6.528 20.7417 6.048 20.5817 5.568C20.4217 5.088 20.2537 4.608 20.0777 4.128H20.0537C19.8937 4.592 19.7337 5.064 19.5737 5.544C19.4137 6.008 19.2537 6.472 19.0937 6.936L15.5417 17.808C15.4937 17.936 15.3977 18 15.2537 18H13.6457ZM16.3097 14.328L16.8137 12.552H23.3417L23.8697 14.328H16.3097ZM28.7794 18C28.7154 18 28.6594 17.976 28.6114 17.928C28.5634 17.88 28.5394 17.824 28.5394 17.76L28.8754 2.52C28.8754 2.36 28.9554 2.28 29.1154 2.28H31.6594C31.7714 2.28 31.8594 2.344 31.9234 2.472L36.1234 11.904L40.2514 2.472C40.3154 2.344 40.4034 2.28 40.5154 2.28H43.0594C43.2194 2.28 43.2994 2.36 43.2994 2.52L43.6354 17.76C43.6354 17.824 43.6114 17.88 43.5634 17.928C43.5314 17.976 43.4754 18 43.3954 18H41.8834C41.7234 18 41.6434 17.92 41.6434 17.76L41.4034 8.112C41.3874 7.52 41.3874 6.936 41.4034 6.36C41.4354 5.784 41.4594 5.2 41.4754 4.608H41.4274C41.1874 5.2 40.9394 5.784 40.6834 6.36C40.4434 6.936 40.1874 7.52 39.9154 8.112L36.3634 15.816C36.3154 15.928 36.2274 15.984 36.0994 15.984H36.0514C35.9234 15.984 35.8354 15.928 35.7874 15.816L32.1874 7.992C31.9314 7.432 31.6834 6.872 31.4434 6.312C31.2194 5.736 30.9954 5.168 30.7714 4.608H30.7234C30.7554 5.168 30.7714 5.736 30.7714 6.312C30.7874 6.888 30.7874 7.456 30.7714 8.016L30.5314 17.76C30.5314 17.92 30.4514 18 30.2914 18H28.7794ZM47.5847 18C47.4247 18 47.3447 17.92 47.3447 17.76V2.52C47.3447 2.36 47.4247 2.28 47.5847 2.28H49.1447C49.3047 2.28 49.3847 2.36 49.3847 2.52V16.152H56.0087C56.1687 16.152 56.2487 16.232 56.2487 16.392V17.76C56.2487 17.92 56.1687 18 56.0087 18H47.5847Z" fill="white"/>
</svg>
