<svg width="28" height="28" viewBox="0 0 28 28" fill="none" xmlns="http://www.w3.org/2000/svg">
<rect width="28" height="28" rx="4" fill="white"/>
<path d="M3.117 17C3.069 17 3.039 16.988 3.027 16.964C3.015 16.934 3.021 16.901 3.045 16.865L4.926 13.976L3.162 11.24C3.138 11.204 3.132 11.174 3.144 11.15C3.156 11.12 3.183 11.105 3.225 11.105H4.476C4.536 11.105 4.578 11.129 4.602 11.177L5.313 12.329C5.379 12.437 5.442 12.554 5.502 12.68C5.568 12.806 5.628 12.926 5.682 13.04H5.709C5.763 12.92 5.826 12.791 5.898 12.653C5.976 12.515 6.045 12.395 6.105 12.293L6.78 11.177C6.81 11.129 6.855 11.105 6.915 11.105H8.13C8.172 11.105 8.199 11.12 8.211 11.15C8.229 11.174 8.223 11.204 8.193 11.24L6.438 13.985L8.301 16.865C8.325 16.901 8.328 16.934 8.31 16.964C8.298 16.988 8.271 17 8.229 17H6.978C6.918 17 6.87 16.976 6.834 16.928L6.087 15.704C6.027 15.602 5.958 15.482 5.88 15.344C5.808 15.2 5.739 15.062 5.673 14.93H5.655C5.589 15.056 5.52 15.188 5.448 15.326C5.376 15.464 5.31 15.581 5.25 15.677L4.485 16.919C4.455 16.973 4.407 17 4.341 17H3.117ZM8.60032 17C8.51632 17 8.48632 16.958 8.51032 16.874L10.4183 11.195C10.4423 11.135 10.4873 11.105 10.5533 11.105H11.9303C11.9963 11.105 12.0383 11.135 12.0563 11.195L13.9823 16.874C13.9943 16.91 13.9913 16.94 13.9733 16.964C13.9613 16.988 13.9343 17 13.8923 17H12.7313C12.6653 17 12.6233 16.97 12.6053 16.91L11.5703 13.427C11.5103 13.223 11.4533 13.019 11.3993 12.815C11.3453 12.605 11.2913 12.398 11.2373 12.194H11.2193C11.1653 12.398 11.1113 12.605 11.0573 12.815C11.0033 13.019 10.9463 13.223 10.8863 13.427L9.86932 16.901C9.85132 16.967 9.80932 17 9.74332 17H8.60032ZM9.98632 15.857L10.2023 14.831H12.2273L12.4613 15.857H9.98632ZM14.554 17C14.518 17 14.488 16.991 14.464 16.973C14.446 16.949 14.437 16.919 14.437 16.883L14.554 11.222C14.554 11.144 14.593 11.105 14.671 11.105H15.967C16.027 11.105 16.069 11.135 16.093 11.195L17.551 14.309L18.991 11.195C19.021 11.135 19.066 11.105 19.126 11.105H20.413C20.485 11.105 20.521 11.144 20.521 11.222L20.647 16.883C20.647 16.919 20.635 16.949 20.611 16.973C20.593 16.991 20.566 17 20.53 17H19.504C19.426 17 19.387 16.961 19.387 16.883L19.333 14.426C19.327 14.18 19.327 13.928 19.333 13.67C19.345 13.406 19.357 13.151 19.369 12.905H19.342C19.24 13.145 19.132 13.391 19.018 13.643C18.904 13.895 18.787 14.138 18.667 14.372L17.695 16.343C17.671 16.391 17.626 16.415 17.56 16.415H17.515C17.455 16.415 17.413 16.391 17.389 16.343L16.408 14.354C16.294 14.12 16.18 13.88 16.066 13.634C15.952 13.382 15.847 13.139 15.751 12.905H15.724C15.736 13.151 15.745 13.403 15.751 13.661C15.757 13.919 15.757 14.168 15.751 14.408L15.697 16.883C15.697 16.961 15.658 17 15.58 17H14.554ZM21.834 17C21.756 17 21.717 16.961 21.717 16.883V11.222C21.717 11.144 21.756 11.105 21.834 11.105H22.905C22.971 11.105 23.004 11.144 23.004 11.222V15.884H25.308C25.38 15.884 25.416 15.92 25.416 15.992V16.883C25.416 16.961 25.38 17 25.308 17H21.834Z" fill="black"/>
</svg>
