<svg width="28" height="28" viewBox="0 0 28 28" fill="none" xmlns="http://www.w3.org/2000/svg">
<circle cx="14" cy="14" r="14" fill="white"/>
<path d="M7.912 18.144C6.872 18.144 6.068 17.892 5.5 17.388C4.932 16.876 4.648 16.112 4.648 15.096V13.068C4.648 12.036 4.932 11.268 5.5 10.764C6.076 10.252 6.884 9.996 7.924 9.996C8.652 9.996 9.272 10.112 9.784 10.344C10.296 10.576 10.672 10.908 10.912 11.34C11.16 11.764 11.244 12.264 11.164 12.84C11.156 12.88 11.14 12.92 11.116 12.96C11.092 12.992 11.056 13.008 11.008 13.008H9.592C9.496 13.008 9.452 12.956 9.46 12.852C9.468 12.428 9.348 12.092 9.1 11.844C8.86 11.596 8.476 11.472 7.948 11.472C7.444 11.472 7.052 11.608 6.772 11.88C6.5 12.144 6.364 12.556 6.364 13.116V15.024C6.364 15.584 6.5 16 6.772 16.272C7.052 16.536 7.444 16.668 7.948 16.668C8.492 16.668 8.884 16.54 9.124 16.284C9.372 16.02 9.484 15.688 9.46 15.288C9.452 15.184 9.496 15.132 9.592 15.132H10.996C11.092 15.132 11.148 15.188 11.164 15.3C11.22 15.876 11.124 16.38 10.876 16.812C10.628 17.236 10.252 17.564 9.748 17.796C9.244 18.028 8.632 18.144 7.912 18.144ZM13.6767 16.788C13.5727 16.788 13.5207 16.736 13.5207 16.632V15.06H11.7927C11.6887 15.06 11.6367 15.012 11.6367 14.916V13.884C11.6367 13.78 11.6887 13.728 11.7927 13.728H13.5207V12.156C13.5207 12.06 13.5727 12.012 13.6767 12.012H14.7327C14.8367 12.012 14.8887 12.06 14.8887 12.156V13.728H16.6167C16.7207 13.728 16.7727 13.78 16.7727 13.884V14.916C16.7727 15.012 16.7207 15.06 16.6167 15.06H14.8887V16.632C14.8887 16.736 14.8367 16.788 14.7327 16.788H13.6767ZM19.672 16.788C19.568 16.788 19.516 16.736 19.516 16.632V15.06H17.788C17.684 15.06 17.632 15.012 17.632 14.916V13.884C17.632 13.78 17.684 13.728 17.788 13.728H19.516V12.156C19.516 12.06 19.568 12.012 19.672 12.012H20.728C20.832 12.012 20.884 12.06 20.884 12.156V13.728H22.612C22.716 13.728 22.768 13.78 22.768 13.884V14.916C22.768 15.012 22.716 15.06 22.612 15.06H20.884V16.632C20.884 16.736 20.832 16.788 20.728 16.788H19.672Z" fill="black"/>
</svg>
