<svg width="221" height="88" viewBox="0 0 221 88" fill="none" xmlns="http://www.w3.org/2000/svg">
<path d="M5.74 64V15.7H15.82V34.81L32.9 15.7H42.35L43.33 17.73L27.3 35.58L45.08 61.97L44.17 64H34.86L20.79 42.86L15.82 48.25V64H5.74ZM50.2313 55.9V45.7C50.2313 40.3 52.9313 37.6 58.3313 37.6H64.8313C70.2313 37.6 72.9313 40.3 72.9313 45.7V53.35H57.1313V56.4C57.1313 57.4667 57.6646 58 58.7313 58H71.9313V61.75L68.9313 64H58.3313C52.9313 64 50.2313 61.3 50.2313 55.9ZM57.1313 48.05H66.0313V45.2C66.0313 44.1333 65.4979 43.6 64.4313 43.6H58.7313C57.6646 43.6 57.1313 44.1333 57.1313 45.2V48.05ZM86.4328 64C81.0328 64 78.3328 61.35 78.3328 56.05C78.3328 50.75 81.0328 48.1 86.4328 48.1H93.3328V45.2C93.3328 44.1333 92.7995 43.6 91.7328 43.6H81.1328V39.85L84.1328 37.6H92.1328C97.5328 37.6 100.233 40.3 100.233 45.7V64H86.4328ZM85.2328 56.4C85.2328 57.4667 85.7661 58 86.8328 58H93.3328V53.4H86.8328C85.7661 53.4 85.2328 53.9333 85.2328 55V56.4ZM107.223 64V27H114.123V37.6H121.823C127.223 37.6 129.923 40.3 129.923 45.7V64H123.023V45.2C123.023 44.1333 122.49 43.6 121.423 43.6H114.123V64H107.223ZM136.711 54.4V27H143.611V55.1C143.611 57.1667 144.677 58.3167 146.811 58.55V64.5C140.077 64.5 136.711 61.1333 136.711 54.4ZM152.239 33.25V26.5H159.439V33.25H152.239ZM152.389 64V37.6H159.289V64H152.389ZM173.2 64C167.8 64 165.1 61.35 165.1 56.05C165.1 50.75 167.8 48.1 173.2 48.1H180.1V45.2C180.1 44.1333 179.567 43.6 178.5 43.6H167.9V39.85L170.9 37.6H178.9C184.3 37.6 187 40.3 187 45.7V64H173.2ZM172 56.4C172 57.4667 172.534 58 173.6 58H180.1V53.4H173.6C172.534 53.4 172 53.9333 172 55V56.4ZM193.991 64V37.6H208.591C213.991 37.6 216.691 40.3 216.691 45.7V64H209.791V45.2C209.791 44.1333 209.257 43.6 208.191 43.6H200.891V64H193.991Z" fill="white"/>
<line x1="5" y1="66" x2="217" y2="66" stroke="url(#paint0_linear_30_123)" stroke-opacity="0.5" stroke-width="6"/>
<defs>
<linearGradient id="paint0_linear_30_123" x1="5" y1="69" x2="217" y2="69" gradientUnits="userSpaceOnUse">
<stop stop-color="white"/>
<stop offset="1" stop-color="#4F4F4F"/>
</linearGradient>
</defs>
</svg>
